<svg id="bbb" data-name="bbb" xmlns="http://www.w3.org/2000/svg" viewBox="0 0 366.6 207">
    <defs>
        <style>
            .cls-1bbb{fill:#025b79}.cls-2bbb{fill:#fff}
        </style>
    </defs>
    <rect class="cls-1bbb" width="366.6" height="207" rx="16"/>
    <rect class="cls-2bbb" x="10.7" y="11.3" width="114.9" height="184.6" rx="8"/>
    <path d="M298.2 128a1 1 0 011 .7 9.2 9.2 0 01.8 4.4 50.5 50.5 0 010 5.5 38.6 38.6 0 01-5.7 20c-3 5.4-6.4 10.4-11 14.5a51.3 51.3 0 01-21.3 11c-6 1.6-12.1 1-18.1.7-3.6 0-7-1.6-10.4-2.9a39.2 39.2 0 01-18.1-12 45.7 45.7 0 01-12.2-21.5 55.4 55.4 0 01-1-20c0-.2.5-.3.8-.4 2 0 4 .8 6 1.1 6.5.9 9.9 1.2 14 .3.8-.1 3.4-1.6 3.1-.8-1 3-4 8-5 11-2 5.2-3.8 10.3-5.7 15.7a1 1 0 001 1.4h9.6a1 1 0 001-.5c1.5-2.7 1.6-6 3.3-8.7a1 1 0 011-.4h15a1 1 0 01.6.2c3 2.4 1.8 6.8 4.2 9.2a1 1 0 00.7.2h11c.1-.3.3-.5.2-.6-3.3-7.5-5.3-15.5-8.7-23l-.8-1.5a1 1 0 012-1h0a1 1 0 00.8.4H271a1 1 0 00.4 0c.7-.4 1.2-1.2 1.8-1.7a1 1 0 011.7.9 47.9 47.9 0 010 6.9c0 .5.5 3 0 3h-10.5c-.8 0-1.3-1.8-1.4-1v4.9c0 .6.5 0 1.1 0h11.5c1 1-1.4 2.7-.4 3.7v9s.2-.8.5-.6c2.2-.7 2.4.3 3.7-.1.2-.1.3.7.4.5 2-3.3-.2-7 .3-10.5 0-.5-.5-2 0-2l10.8 1a1 1 0 001-.4c-2.1 3.2-2.8-8.5-.2-5.1a1.1 1.1 0 00-.8-.4H281a1 1 0 01-1.1-1.2v-7.1a1.2 1.2 0 01.6-1c1-.6 0-1.9.3-2.8 1.4 0 1 1.2 1.1 2a1 1 0 001.2 1c2.5-.4 3.1 0 8.5-1a1 1 0 01.5 0c2.1.6 4-1 6-1z" transform="translate(-7.5 -5.3)" stroke-miterlimit="10" stroke="#037c99" fill="#037c99"/>
    <path d="M225 129a35.3 35.3 0 01-16 .1 58 58 0 00-6.8-.7c.6-4.5 1.8-6.8 3-9.6a42.8 42.8 0 019.4-14.9c3.3-3.2 6.3-6.7 10.2-9.2a46.7 46.7 0 0110.3-4.7c3.6-1.2 7-3.4 10.1-3.1 1.6.1 4.7-.4 10.8-.2 5.2.2 5.4 1.1 10.4 3.2a64 64 0 0116.4 9.4c7.2 6 11.6 14 14.7 22.7.7 2 1 4 1.5 6-2 .8.4-.1-4 .8a32 32 0 01-15 1.3v-3h-4.8c-.2.8-.3 3.3-.4 4a5.2 5.2 0 00-3.6 0h-15.5c-1-1-5 .7-6.8-1.1l2-3m-5-17h-13.3" transform="translate(-7.5 -5.3)" fill="#028da8"/>
    <path class="cls-1bbb" d="M21 166h109v26c0 3.5-1.6 5.4-5.4 6-7.2 1.1-10.7.9-16.6.9H42.3c-5.8 0-8-.3-16.2-.2-1-.8-2.4-.9-3.2-1.9-1.8-1.5-1.5-4.8-1.7-10.9zM76 25c.3 2.8 1.8 4.5 4.2 6.1q9.4 6.4 18.4 13.3c1.8 1.4 2.9 3.6 4 5 1.5 3 1.2 5.7 1.5 8.5.6 5.1-1.7 9.2-4.5 12.9s-5.3 7.3-8 11a42.4 42.4 0 01-3.4 3.6c-.1-3.5 1.6-6.4.4-10.2a13.7 13.7 0 00-5.3-5.6c-4.9-3-9.4-6.8-14.1-10.1a17.5 17.5 0 01-5.6-21.3c1.6-3.6 4.4-6.7 6.8-10a20 20 0 012.1-2.6C74 24 74.3 24.3 75 23c1.5 0 1 1.1 1.1 2zm-1.8 77l-.2-4.2c-5.3-4.6-11.8-7.6-16.4-12.8A17.9 17.9 0 0156 74.8c2-4.8 5.6-8.7 8.6-13l1.1.7c-.3 3.6 2 5.5 4.6 7.3 3.3 2.3 6.6 4.5 9.8 7 4.7 3.7 5.9 9.6 3.3 15.2-1.6 3.5-4.5 6.3-6.6 9.5-.5.8-1.5.5-2.7.4zm12.3 18h-22c-1.6-2.3-1.7-5.1-3-8h-13a12.8 12.8 0 011.8-6h51.5c-.1 2 1.6 3.5 1 5.8H91c-3.3 2-1.8 5.9-4.5 8.2z" transform="translate(-7.5 -5.3)"/>
    <path d="M226.6 156.8h-11.7l6.1-17.2 4-10.6 7.6-19H246l8.3 23c3.4 7.6 5.4 15.6 8.7 23a.8.8 0 01.1.7h-11.6l-4.9-9.6h-15.9zm48.3-11.8H263v-6h11.7v-11.8h5.3V139h11.4l.1 6h-11l.1 11.8h-5.5z" transform="translate(-7.5 -5.3)" fill="#f3f5f6"/>
    <path d="M232.8 139l6-16.7 6.4 16.7z" transform="translate(-7.5 -5.3)" fill="#037c99"/>
    <circle cx="243.4" cy="130.7" r="49.6" fill="none" stroke="#025b79" stroke-width="2" stroke-miterlimit="10"/>
    <path class="cls-2bbb" d="M162 52.3h10.8a5.9 5.9 0 014.1 1.3 4.3 4.3 0 011.4 3.3 4.1 4.1 0 01-1 2.9 4.6 4.6 0 01-2 1.2 5.2 5.2 0 013 1.7 4.6 4.6 0 011 3 5 5 0 01-.7 2.6 5 5 0 01-1.8 1.8 6.1 6.1 0 01-2.2.6l-2.6.3h-10zm5.8 7.3h2.5a2.9 2.9 0 001.9-.5 1.6 1.6 0 00.5-1.3 1.6 1.6 0 00-.5-1.3 2.8 2.8 0 00-1.9-.4h-2.5zm0 7.3h3a3.3 3.3 0 002-.5 1.8 1.8 0 00.6-1.4 1.6 1.6 0 00-.6-1.3 3.4 3.4 0 00-2-.5h-3zm14.4-14.6H193a5.9 5.9 0 014.1 1.3 4.3 4.3 0 011.5 3.3 4.1 4.1 0 01-1 2.9 4.5 4.5 0 01-2 1.2 5.2 5.2 0 013 1.7 4.6 4.6 0 011 3 5 5 0 01-.8 2.6A4.9 4.9 0 01197 70a6.1 6.1 0 01-2.2.6l-2.6.3h-10zm5.8 7.3h2.5a2.9 2.9 0 001.9-.5 1.7 1.7 0 00.5-1.3 1.6 1.6 0 00-.5-1.3 2.8 2.8 0 00-1.9-.4H188zm0 7.3h3a3.2 3.2 0 002-.5 1.8 1.8 0 00.6-1.4 1.7 1.7 0 00-.6-1.3 3.4 3.4 0 00-2-.5h-3zm14.4-14.6h10.8a5.9 5.9 0 014.1 1.3 4.3 4.3 0 011.5 3.3 4.2 4.2 0 01-1 2.9 4.6 4.6 0 01-2 1.2 5.2 5.2 0 013 1.7 4.6 4.6 0 011 3 5 5 0 01-2.6 4.4 6.2 6.2 0 01-2.2.6l-2.6.3h-9.9zm5.8 7.3h2.5a2.9 2.9 0 001.9-.5 1.7 1.7 0 00.5-1.3 1.6 1.6 0 00-.5-1.3 2.8 2.8 0 00-1.8-.4h-2.6zm0 7.3h3a3.3 3.3 0 002-.5 1.8 1.8 0 00.7-1.4 1.6 1.6 0 00-.6-1.3 3.4 3.4 0 00-2.1-.5h-3zm23.2 4V52.3h9.6a13.8 13.8 0 014 .5 4.3 4.3 0 012.4 1.7 5.3 5.3 0 01-1.7 7.5 7.1 7.1 0 01-2 .7 5.3 5.3 0 011.5.7 5.7 5.7 0 011 1 8 8 0 01.7 1.2l2.8 5.4h-6.5l-3-5.7a4.5 4.5 0 00-1-1.4 2.4 2.4 0 00-1.5-.5h-.5V71zm5.8-11h2.4a9.5 9.5 0 001.5-.3 1.6 1.6 0 00.9-.6 1.9 1.9 0 00-.2-2.5 3.5 3.5 0 00-2.1-.4H237zM263 67.8h-6.5l-1 3.1h-5.8l7-18.6h6.3l7 18.6h-6zm-1.2-4l-2-6.6-2 6.6zm6.9-11.5H286V57h-5.8v14h-5.8v-14h-5.8zm20.3 0h5.8V71H289zm9.9 0h5.4l7 10.3V52.3h5.4V71h-5.4l-7-10.2v10.2h-5.4zm31 11.9v-3.9h8.9v8a18.2 18.2 0 01-4.6 2.3 15.3 15.3 0 01-4.6.6 11.3 11.3 0 01-5.4-1 7.7 7.7 0 01-3.2-3.5 11 11 0 01-1.1-5 10.7 10.7 0 011.2-5.4 8.1 8.1 0 013.7-3.4 12 12 0 015-1 14.4 14.4 0 014.7.6 6 6 0 012.5 1.8 7.8 7.8 0 011.5 3l-5.5 1a3 3 0 00-1.2-1.6 3.6 3.6 0 00-2-.6 3.8 3.8 0 00-3 1.3 6.3 6.3 0 00-1.2 4.2 6.5 6.5 0 001.1 4.3 4 4 0 003.2 1.3 6 6 0 001.8-.3 9.5 9.5 0 002-1v-1.7zM38 180h-2.2l-.9-2.3h-4l-.8 2.3h-2.2l4-10H34zm-3.7-4l-1.4-3.7-1.4 3.7zm11.5.3l2 .6a4.4 4.4 0 01-1.5 2.4 4.7 4.7 0 01-6-.5A5.3 5.3 0 0139 175a5.5 5.5 0 011.3-3.8 4.4 4.4 0 013.4-1.4 4.2 4.2 0 013 1 4 4 0 011 2l-2 .4a2 2 0 00-2-1.7 2.3 2.3 0 00-1.9.8 4 4 0 00-.7 2.6 4.2 4.2 0 00.7 2.7 2.2 2.2 0 001.8.8 2 2 0 001.4-.5 3 3 0 00.8-1.6zm10.5 0l2 .6a4.4 4.4 0 01-1.5 2.4 4.7 4.7 0 01-6-.5 5.3 5.3 0 01-1.3-3.8 5.5 5.5 0 011.3-3.8 4.5 4.5 0 013.4-1.4 4.2 4.2 0 013 1 4 4 0 011 2l-2 .4a2 2 0 00-2.1-1.7 2.3 2.3 0 00-1.8.8 4 4 0 00-.7 2.6 4.2 4.2 0 00.7 2.7 2.2 2.2 0 001.7.8 2 2 0 001.4-.5 3 3 0 00.9-1.6zm4 3.7v-10h4.3a7.3 7.3 0 012.3.3 2.3 2.3 0 011.2 1 2.9 2.9 0 01.4 1.5 2.7 2.7 0 01-.6 2 3.2 3.2 0 01-2 .8 4.6 4.6 0 011 .9 11 11 0 011.2 1.5l1.2 2H67l-1.4-2.2a15.5 15.5 0 00-1.1-1.5 1.5 1.5 0 00-.6-.4 3.1 3.1 0 00-1 0h-.4v4.1zm2-5.8h1.5a7.7 7.7 0 001.8-.1 1.1 1.1 0 00.6-.4 1.3 1.3 0 00.2-.8 1.2 1.2 0 00-.3-.8 1.2 1.2 0 00-.7-.4 13.6 13.6 0 00-1.5 0h-1.5zm8.5 5.8v-10h7.4v1.7h-5.4v2.2h5v1.7h-5v2.7h5.6v1.7zm9.7-10h3.7a7 7 0 011.9.2 3.3 3.3 0 011.5 1 4.3 4.3 0 011 1.5 7.3 7.3 0 01.3 2.4 6.5 6.5 0 01-.3 2.1 4.4 4.4 0 01-1.1 1.8 3.6 3.6 0 01-1.4.8 6.3 6.3 0 01-1.8.2h-3.8zm2 1.7v6.6H84a5.2 5.2 0 001.2 0 1.9 1.9 0 00.8-.5 2 2 0 00.6-1 6.4 6.4 0 00.2-1.8 5.9 5.9 0 00-.2-1.8 2.3 2.3 0 00-.6-1 2 2 0 00-1-.5 8.4 8.4 0 00-1.6 0zm8.4 8.3v-10h2v10zm6.5 0v-8.3h-3V170h8v1.7h-3v8.3zm6.7 0v-10h7.4v1.7h-5.4v2.2h5v1.7h-5v2.7h5.6v1.7zm9.7-10h3.7a7.1 7.1 0 011.9.2 3.3 3.3 0 011.5 1 4.3 4.3 0 011 1.5 7.3 7.3 0 01.3 2.4 6.5 6.5 0 01-.3 2.1 4.4 4.4 0 01-1 1.8 3.6 3.6 0 01-1.5.8 6.1 6.1 0 01-1.8.2h-3.8zm2 1.7v6.6h1.5a5 5 0 001.2 0 2 2 0 00.8-.5 2.1 2.1 0 00.5-1 6.4 6.4 0 00.3-1.8 5.9 5.9 0 00-.3-1.8 2.4 2.4 0 00-.5-1 2 2 0 00-1-.5 8.5 8.5 0 00-1.6 0zM39 183h4a12.4 12.4 0 011.8.1 2.7 2.7 0 011 .4 2.8 2.8 0 01.8.9 2.3 2.3 0 01.3 1.1 2.3 2.3 0 01-.4 1.3 2.4 2.4 0 01-1 1 2.6 2.6 0 011.4.8 2.4 2.4 0 01.5 1.5 3 3 0 01-.3 1.4 2.7 2.7 0 01-.9 1 2.9 2.9 0 01-1.3.4l-2.5.1H39zm2 1.7v2.3h2.8a1.4 1.4 0 00.8-.4 1 1 0 00.3-.8 1 1 0 00-.3-.7 1.1 1.1 0 00-.7-.3H42zm0 4v2.7h1.9a9.4 9.4 0 001.4-.1 1.3 1.3 0 00.7-.4 1.3 1.3 0 00.3-.9 1.3 1.3 0 00-.2-.7 1.3 1.3 0 00-.7-.5 7.1 7.1 0 00-1.8-.1zm8.4-5.7h2v5.4a11.2 11.2 0 000 1.7 1.6 1.6 0 00.7 1 2.1 2.1 0 001.3.4 2 2 0 001.3-.3 1.4 1.4 0 00.5-1 11.1 11.1 0 00.1-1.6V183h2v5.3a13.6 13.6 0 01-.1 2.6 2.9 2.9 0 01-.6 1.2 3 3 0 01-1.2.8 5 5 0 01-2 .3 5.6 5.6 0 01-2.1-.3 3 3 0 01-1.2-.9 2.7 2.7 0 01-.6-1 12.2 12.2 0 01-.2-2.6zm10 6.8l2-.2a2.4 2.4 0 00.7 1.4 2.2 2.2 0 001.4.5 2.2 2.2 0 001.5-.4 1.2 1.2 0 00.5-1 1 1 0 00-.2-.6 1.7 1.7 0 00-.7-.4l-1.6-.5a5.6 5.6 0 01-2.3-1 2.6 2.6 0 01-1-2 2.6 2.6 0 01.5-1.4 2.7 2.7 0 011.2-1 5 5 0 012-.4 4.2 4.2 0 012.9.9 2.9 2.9 0 011 2.2h-2a1.7 1.7 0 00-.6-1 2 2 0 00-1.3-.4 2.3 2.3 0 00-1.4.4.7.7 0 00-.3.6.8.8 0 00.3.6 5.4 5.4 0 001.8.7 9.6 9.6 0 012.2.7 2.8 2.8 0 011.1 1 3 3 0 01-1.4 4.4 5.7 5.7 0 01-2.2.4 4.3 4.3 0 01-3-1 3.8 3.8 0 01-1.1-2.5zm10 3.2v-10h2v10zm4.4 0v-10h2l4.1 6.7v-6.7h1.9v10h-2l-4-6.5v6.5zm10.5 0v-10h7.4v1.7h-5.4v2.2h5v1.7h-5v2.7h5.6v1.7zm9.1-3.2l2-.2a2.4 2.4 0 00.8 1.4 2.2 2.2 0 001.4.5 2.2 2.2 0 001.5-.4 1.2 1.2 0 00.5-1 1 1 0 00-.2-.6 1.6 1.6 0 00-.8-.4l-1.6-.5a5.6 5.6 0 01-2.3-1 2.6 2.6 0 01-.9-2 2.6 2.6 0 01.5-1.4 2.6 2.6 0 011.2-1 5 5 0 012-.4 4.2 4.2 0 012.8.9 3 3 0 011 2.2h-2a1.7 1.7 0 00-.5-1 2 2 0 00-1.3-.4 2.3 2.3 0 00-1.4.4.7.7 0 00-.3.6.8.8 0 00.3.6 5.3 5.3 0 001.9.7 9.6 9.6 0 012.1.7 2.9 2.9 0 011.2 1 3 3 0 01.4 1.6 3 3 0 01-.5 1.6 2.9 2.9 0 01-1.5 1.2 5.7 5.7 0 01-2.1.4 4.3 4.3 0 01-3-1 3.8 3.8 0 01-1.2-2.5zm9.7 0l2-.2a2.4 2.4 0 00.8 1.4 2.2 2.2 0 001.4.5 2.2 2.2 0 001.5-.4 1.2 1.2 0 00.5-1 1 1 0 00-.2-.6 1.7 1.7 0 00-.8-.4l-1.6-.5a5.6 5.6 0 01-2.3-1 2.6 2.6 0 01-.9-2 2.5 2.5 0 01.4-1.4 2.7 2.7 0 011.3-1 5 5 0 012-.4 4.3 4.3 0 012.8.9 3 3 0 011 2.2h-2a1.7 1.7 0 00-.5-1 2 2 0 00-1.3-.4 2.4 2.4 0 00-1.4.4.7.7 0 00-.3.6.8.8 0 00.3.6 5.4 5.4 0 001.9.7 9.6 9.6 0 012.2.7 2.8 2.8 0 011 1 3 3 0 01.4 1.6 3 3 0 01-.4 1.6 2.9 2.9 0 01-1.4 1.1 5.7 5.7 0 01-2.2.4 4.3 4.3 0 01-2.9-.9 3.8 3.8 0 01-1.3-2.5z" transform="translate(-7.5 -5.3)"/>
    <path class="cls-1bbb" d="M33.6 126.4h11.5a34.4 34.4 0 015 .3 7.5 7.5 0 013 1.2 7.1 7.1 0 012.2 2.3 6.4 6.4 0 011 3.4 6.8 6.8 0 01-4 6.2 7.5 7.5 0 014 2.6 6.9 6.9 0 011.3 4.3 8.5 8.5 0 01-.9 3.8 7.5 7.5 0 01-2.5 3 8.2 8.2 0 01-3.9 1.3c-1 .1-3.2.2-7 .2h-9.7zm5.8 4.8v6.6h3.8l4.2-.1a3.9 3.9 0 002.3-1 3 3 0 00.9-2.2 3.2 3.2 0 00-.7-2.2 3.4 3.4 0 00-2.2-1l-5-.1zm0 11.3v7.7h5.4a25.5 25.5 0 004-.2 3.4 3.4 0 002.9-3.6 3.8 3.8 0 00-.7-2.1 3.6 3.6 0 00-1.8-1.3 19.8 19.8 0 00-5.1-.4zm24.1-16.1H75a34.2 34.2 0 015 .3 7.4 7.4 0 013 1.2 7.3 7.3 0 012.3 2.3 6.4 6.4 0 01.8 3.4 6.7 6.7 0 01-1.1 3.7 6.8 6.8 0 01-3 2.5 7.5 7.5 0 014 2.6 6.9 6.9 0 011.5 4.3 8.6 8.6 0 01-1 3.8 7.7 7.7 0 01-2.4 3 8.2 8.2 0 01-3.9 1.3c-1 .1-3.3.2-7 .2h-9.7zm5.8 4.8v6.6H73l4.2-.1a3.8 3.8 0 002.3-1 3 3 0 00.9-2.2 3.1 3.1 0 00-.8-2.2 3.3 3.3 0 00-2.2-1l-4.9-.1zm0 11.3v7.7h5.3a25.6 25.6 0 004-.2 3.4 3.4 0 003-3.6 3.7 3.7 0 00-.7-2.1 3.5 3.5 0 00-1.8-1.4 19.8 19.8 0 00-5.1-.4zm24.1-16.1h11.4a34.3 34.3 0 015.1.3 7.5 7.5 0 013 1.2 7.3 7.3 0 012.2 2.3 6.5 6.5 0 01.9 3.4 6.8 6.8 0 01-4 6.2 7.5 7.5 0 014 2.6 7 7 0 011.4 4.3 8.5 8.5 0 01-1 3.8 7.5 7.5 0 01-2.4 3 8.1 8.1 0 01-3.9 1.3c-1 .1-3.3.2-7 .2h-9.7zm5.8 4.8v6.6h3.8l4.2-.1a3.8 3.8 0 002.3-1 3 3 0 00.9-2.2 3.1 3.1 0 00-.8-2.2 3.4 3.4 0 00-2.1-1l-5-.1zm0 11.3v7.7h5.3a25.7 25.7 0 004-.2 3.6 3.6 0 002.1-1.1 3.5 3.5 0 00.8-2.5 3.7 3.7 0 00-.6-2.1 3.6 3.6 0 00-1.8-1.3 19.7 19.7 0 00-5.1-.4z" transform="translate(-7.5 -5.3)"/>
</svg>