<svg data-name="Consolidated Credit Official Logo" xmlns="http://www.w3.org/2000/svg" viewBox="0 0 533.2 107">
  <path d="M85.3 10A53.9 53.9 0 0026 7.9a53.3 53.3 0 00-25.6 53 58.7 58.7 0 0184.8-50.7z" fill-rule="evenodd" fill="#003767"/>
  <path d="M83.7 97.4a49.2 49.2 0 11-52-83.2 49.6 49.6 0 00-8.4 66.2c14.7 20.9 38.2 29.6 60.4 17z" fill="#00adee" fill-rule="evenodd"/>
  <path d="M68.7 62.4a15.7 15.7 0 01-5 2 27.9 27.9 0 01-6.5.6 21.1 21.1 0 01-15.7-6.3 22 22 0 01-6.2-16 22 22 0 016.2-16 21 21 0 0115.7-6.5 28.5 28.5 0 016.5.7 15.2 15.2 0 015 2v12.7A13.8 13.8 0 0058.3 31a11.1 11.1 0 00-8.3 3.3 11.8 11.8 0 00-3.2 8.6 11 11 0 003.3 8.1 11.4 11.4 0 008.2 3.2 14 14 0 0010.3-4.6zm36.6-14.5a16 16 0 01-5 12 17.3 17.3 0 01-12.5 4.9A17.4 17.4 0 0175.2 60a16 16 0 01-5-12 16.1 16.1 0 015.1-12 17.3 17.3 0 0112.5-5 17.3 17.3 0 0112.5 4.9 16.1 16.1 0 015 12zm-8.8 0a8.6 8.6 0 00-2.5-6.2 8.8 8.8 0 00-15.1 6.2 8.4 8.4 0 002.5 6.3 9.3 9.3 0 0012.6 0 8.5 8.5 0 002.5-6.3zm43.7 16.2h-8.4l-15-20.1v20.1h-8.4V31.7h8.4l15 20.1V31.7h8.5zM166.7 54a10 10 0 01-3.5 8q-3.4 3-9.1 3a15.7 15.7 0 01-6.1-1.2 18 18 0 01-5.3-3.6l3.9-6.1a13 13 0 003.7 3 8.6 8.6 0 004 1 4.4 4.4 0 002.8-1 3 3 0 001.1-2.3 3.1 3.1 0 00-1-2.5 11.8 11.8 0 00-4.3-1.8 13.5 13.5 0 01-6.7-3.4 8.3 8.3 0 01-2-6 9.3 9.3 0 013-7.3 11.8 11.8 0 018.1-2.7 17.7 17.7 0 015.1.7A16.2 16.2 0 01165 34l-2.8 6.5a11 11 0 00-3-1.9 8.5 8.5 0 00-3.1-.6 4.7 4.7 0 00-2.7.7 2 2 0 00-1 1.7c0 1.5 1.6 2.6 4.7 3.4l.5.2c3.3.8 5.6 2 7 3.6a9.2 9.2 0 012.2 6.4zm36.3-6a16 16 0 01-5 12 18.6 18.6 0 01-25 0 16 16 0 01-5-12 16.1 16.1 0 015-12 18.4 18.4 0 0125 0 16.1 16.1 0 015 12zm-8.8 0a8.6 8.6 0 00-2.5-6.2 9.3 9.3 0 00-12.6 0 8.6 8.6 0 00-2.5 6.3 8.4 8.4 0 002.5 6.2 9.3 9.3 0 0012.6 0 8.5 8.5 0 002.6-6.3zm29.4 16.2h-17.5V31.7h8.8v25h8.7zm10.2 0h-8.4V31.7h8.4zM266.4 48q0 8.2-4.8 12.2t-14.8 4h-8.2V31.7h7q11 0 15.9 4t4.9 12.2zm-8.8 0q0-4.6-2.4-6.9t-7.5-2.2h-.7V57h.7q5.1 0 7.5-2.2c1.6-1.5 2.4-3.8 2.4-6.9zm41.7 16.2h-9l-1.8-5.7h-12.4l-1.8 5.7h-9l11.5-32.4h11zm-12.6-12l-4.3-13.8-4.4 13.8zm31-13H311v25h-8.4v-25H296v-7.4h21.6zm20.4 25h-18.6V31.7h18.6v7.1H328v5.5h9.7V51H328V57h10.1zM369.3 48q0 8.2-4.8 12.2t-14.8 4h-8.2V31.7h7q11 0 16 4t4.8 12.2zm-8.8 0q0-4.6-2.4-6.9c-1.6-1.4-4-2.2-7.5-2.2h-.7V57h.7q5.1 0 7.5-2.2c1.6-1.5 2.4-3.8 2.4-6.9zM408 62.4a15.7 15.7 0 01-5 2 27.8 27.8 0 01-6.4.6 21.1 21.1 0 01-15.7-6.3 22 22 0 01-6.3-16 22 22 0 016.4-16 21 21 0 0115.7-6.5 28.5 28.5 0 016.5.7 15.2 15.2 0 014.9 2v12.7a13.8 13.8 0 00-10.3-4.6 11.1 11.1 0 00-8.3 3.3 11.8 11.8 0 00-3.2 8.6 11 11 0 003.2 8.1 11.4 11.4 0 008.3 3.2 14 14 0 0010.2-4.6zm28.9 1.7h-10l-7.4-12.6v12.6H411V31.7h9.8q8 0 11.1 2.5t3.2 7.8a9.6 9.6 0 01-1.8 6 9 9 0 01-5.4 3.2zM426.5 43a4.3 4.3 0 00-1.3-3.4 6.2 6.2 0 00-4-1h-1.7v8.6h1.5a6.8 6.8 0 004.1-1 3.7 3.7 0 001.4-3.2zM457 64.1h-18.5V31.7H457v7.1H447v5.5h9.7V51H447V57h10zM488.3 48q0 8.2-4.8 12.2t-14.7 4h-8.3V31.7h7q11.1 0 16 4t4.8 12.2zm-8.7 0q0-4.6-2.4-6.9c-1.6-1.4-4.1-2.2-7.5-2.2h-.8V57h.8q5 0 7.5-2.2c1.6-1.5 2.4-3.8 2.4-6.9zM500 64.1h-8.4V31.7h8.4zm23-25h-6.6v25H508v-25h-6.6v-7.4H523zM107.6 91.5l-3.2-16.2h2l1.3 7.8c.4 2 .6 3.9.8 5.9h.1c.2-2 .6-3.8 1-5.9l1.5-7.8h1.6l1.5 7.6 1 6c.2-2.3.5-4 .8-5.9l1.4-7.7h1.8L116 91.5h-1.8l-1.6-7.9-.8-5.3c-.2 1.9-.5 3.6-.9 5.4l-1.6 7.8zM120.8 75h1.8v6.2a3.2 3.2 0 011-1 2.8 2.8 0 011.6-.4c1.5 0 2.7 1.2 2.7 4.1v7.7h-1.8V84c0-1.4-.3-2.8-1.6-2.8-.8 0-1.5.7-1.8 1.9a5 5 0 000 .9v7.5h-1.9zm11 11c0 3.5 1.4 4.3 2.8 4.3a3.9 3.9 0 001.9-.5l.3 1.4a5.6 5.6 0 01-2.6.6c-2.8 0-4.2-2.3-4.2-5.9 0-3.7 1.6-6.1 4-6.1s3.2 2.5 3.2 5.1v1zm3.6-1.4c0-2.3-.8-3.4-1.7-3.4-1.2 0-1.8 1.8-1.9 3.4zm3.8-1.6v-3h1.5l.1 1.4a3 3 0 012.7-1.6c1.6 0 2.8 1.2 2.8 4v7.8h-1.8V84c0-1.4-.3-2.8-1.6-2.8-.8 0-1.5.7-1.8 2a6.4 6.4 0 000 1v7.2h-1.9zm20.5-8v16.6h-1.5l-.1-1.5h-.1a2.7 2.7 0 01-2.4 1.7c-2 0-3.4-2.2-3.4-6 0-4.2 1.7-6 3.5-6a2.3 2.3 0 012.1 1.3V75zm-1.8 9.4v-.8c-.2-1.2-.9-2.2-1.8-2.2-1.5 0-2 2.1-2 4.5s.6 4.4 2 4.4c.5 0 1.3-.4 1.7-2a3.5 3.5 0 00.1-.8zm5.7 1.6c0 3.5 1.4 4.3 2.7 4.3a3.9 3.9 0 002-.5l.2 1.4a5.6 5.6 0 01-2.5.6c-2.8 0-4.2-2.3-4.2-5.9 0-3.7 1.5-6.1 3.9-6.1s3.3 2.5 3.3 5.1a10.4 10.4 0 010 1zm3.6-1.4c0-2.3-.8-3.4-1.7-3.4-1.2 0-1.8 1.8-2 3.4zm3.7 7V75h2v6.4a2.6 2.6 0 012.4-1.6c1.8 0 3.2 2 3.2 5.9 0 4.2-1.8 6.1-3.6 6.1a2.4 2.4 0 01-2.3-1.7l-.2 1.5zm2-4.1a2.3 2.3 0 000 .7c.4 1.8 1.2 2 1.7 2 1.5 0 2-2 2-4.5 0-2.3-.5-4.4-2-4.4-.9 0-1.6 1.1-1.7 2.1a4.4 4.4 0 000 .8zm10-10.6v3h2.1v1.5h-2.2v6.9c0 1.5.6 2 1.2 2a3.4 3.4 0 00.8-.2v1.5a4 4 0 01-1.3.1 2.4 2.4 0 01-1.8-.6c-.5-.6-.7-1.4-.7-3v-6.7h-1.5V80h1.5v-2.6zm9.5 0a1.1 1.1 0 11-2.1 0 1.1 1.1 0 011-1.1 1 1 0 011.1 1.2zm-2 14.7V80h1.9v11.6zm4.2-2a3.7 3.7 0 001.8.7 1.6 1.6 0 001.7-1.7c0-.9-.3-1.5-1.5-2.3-1.5-1-2.3-2-2.3-3.3a3.1 3.1 0 013.2-3.2 4 4 0 012 .6l-.4 1.4a2.7 2.7 0 00-1.6-.5 1.4 1.4 0 00-1.5 1.4c0 .8.3 1.3 1.4 2 1.4 1 2.4 2 2.4 3.6a3.2 3.2 0 01-3.4 3.4 4 4 0 01-2.3-.6zm13.2-12.7v3h2.3v1.5h-2.3v6.9c0 1.5.6 2 1.3 2a3.2 3.2 0 00.7-.2v1.5a4 4 0 01-1.3.1 2.4 2.4 0 01-1.8-.6 4.3 4.3 0 01-.7-3v-6.7h-1.4V80h1.4v-2.6zm3.9-1.9h1.8v6.2a3.2 3.2 0 011-1 2.8 2.8 0 011.7-.4c1.4 0 2.7 1.2 2.7 4.1v7.7H217V84c0-1.4-.3-2.8-1.6-2.8-.8 0-1.5.7-1.8 1.9a5 5 0 000 .9v7.5h-1.9zm11 11c0 3.5 1.4 4.3 2.8 4.3a3.9 3.9 0 001.9-.5l.3 1.4a5.6 5.6 0 01-2.6.6c-2.7 0-4.2-2.3-4.2-5.9 0-3.7 1.6-6.1 4-6.1s3.2 2.5 3.2 5.1v1zm3.6-1.4c.1-2.3-.8-3.4-1.7-3.4-1.2 0-1.8 1.8-1.9 3.4zm7.6-1l-.1-3.6h1.6l.1 1.5a2.6 2.6 0 012.5-1.7c2 0 3.4 2.2 3.4 6 0 4.3-1.8 6-3.6 6a2.2 2.2 0 01-2-1.4v5.8h-1.9zm1.8 3.7a4 4 0 000 1c.5 1.7 1.3 2 1.8 2 1.5 0 2-2 2-4.4s-.6-4.4-2-4.4c-.8 0-1.6 1-1.7 2a5.2 5.2 0 000 1zm7.7-4.3v-3h1.6l.1 1.8a2.8 2.8 0 012.5-2h.4v2a1.6 1.6 0 00-.4 0 2.5 2.5 0 00-2.2 2.3 6.8 6.8 0 00-.1 1v6.4h-1.9zm12.8 2.8c0 4.5-2 6-3.9 6-2 0-3.7-1.9-3.7-6 0-4.3 1.9-6 3.9-6s3.7 2 3.7 6zm-5.8 0c0 2 .4 4.5 2 4.5s2-2.7 2-4.5-.4-4.5-2-4.5-2 2.7-2 4.5zm7.7 5.8l.1-2.8V75h1.9v6.4a2.6 2.6 0 012.5-1.6c1.7 0 3.1 2 3.1 5.9 0 4.2-1.7 6.1-3.5 6.1a2.4 2.4 0 01-2.3-1.7l-.2 1.5zm2-4.1a2.3 2.3 0 00.1.7c.4 1.8 1.2 2 1.7 2 1.5 0 2-2 2-4.5 0-2.3-.5-4.4-2-4.4-.8 0-1.5 1.1-1.7 2.1a5.5 5.5 0 000 .8zm7.8-12.5h1.8v16.6h-1.8zm5.8 11c0 3.5 1.4 4.3 2.8 4.3a3.9 3.9 0 002-.5l.2 1.4a5.6 5.6 0 01-2.5.6c-2.8 0-4.3-2.3-4.3-5.9 0-3.7 1.6-6.1 4-6.1s3.3 2.5 3.3 5.1v1zm3.7-1.4c0-2.3-.9-3.4-1.7-3.4-1.3 0-1.9 1.8-2 3.4zm3.7-1.6v-3h1.6v1.4h.1a2.9 2.9 0 012.6-1.6 2.4 2.4 0 012.4 1.8A3.8 3.8 0 01289 80a2.8 2.8 0 011.6-.4c1.6 0 2.8 1.1 2.8 4.1v7.7h-1.8v-7.3c0-1.5-.2-3-1.7-3-.7 0-1.4.7-1.7 1.8a6.8 6.8 0 000 1v7.5h-1.8v-7.6c0-1.3-.3-2.6-1.6-2.6-.8 0-1.5.6-1.8 1.8a6.4 6.4 0 000 1v7.4H281zm14 11.6a35.1 35.1 0 001.4-5.6l2.1-.2a28.8 28.8 0 01-2.2 5.7zm14-14.6l1.2 5.7.6 3.7h.1l.7-3.7 1.4-5.7h1.4l1.3 5.6.7 3.8.7-3.8 1.1-5.6h1.9l-3 11.6h-1.5l-1.3-5.6-.7-3.5-.6 3.5-1.4 5.6H310L307.3 80zm13.7 6c0 3.5 1.4 4.3 2.7 4.3a3.8 3.8 0 002-.5l.2 1.4a5.6 5.6 0 01-2.5.6c-2.8 0-4.2-2.3-4.2-5.9 0-3.7 1.6-6.1 3.9-6.1s3.3 2.5 3.3 5.1a10.4 10.4 0 010 1zm3.6-1.4c0-2.3-.8-3.4-1.7-3.4-1.2 0-1.8 1.8-1.9 3.4zm12.2 7l-.2-1.2a2.6 2.6 0 01-2.3 1.4c-1.6 0-2.8-1.3-2.8-3.3 0-3 2.3-4.2 5-4.2v-.4c0-1.6-.5-2.6-2-2.6a3.5 3.5 0 00-1.8.6l-.4-1.3a5 5 0 012.7-.8c2.3 0 3.3 1.5 3.3 4.1v5a18.5 18.5 0 00.1 2.7zm-.3-6c-1 0-3.2.2-3.2 2.7 0 1.5.8 2 1.4 2 .8 0 1.5-.5 1.7-1.7a3 3 0 000-.6zm4.4-2.6l-.1-3h1.6l.1 1.8a2.8 2.8 0 012.5-2h.4v2a1.6 1.6 0 00-.4 0 2.5 2.5 0 00-2.2 2.3 6.8 6.8 0 000 1v6.4h-2zm7 3c0 3.5 1.3 4.3 2.7 4.3a3.9 3.9 0 001.9-.5l.3 1.4a5.6 5.6 0 01-2.6.6c-2.7 0-4.2-2.3-4.2-5.9 0-3.7 1.6-6.1 4-6.1s3.2 2.5 3.2 5.1v1zm3.6-1.4c0-2.3-.9-3.4-1.8-3.4-1.2 0-1.8 1.8-1.9 3.4zm9.8-7.7v3h2.2v1.5H363v6.9c0 1.5.5 2 1.2 2a3.2 3.2 0 00.7-.2v1.4a4 4 0 01-1.3.2 2.4 2.4 0 01-1.8-.6 4.3 4.3 0 01-.7-3v-6.7h-1.4V80h1.4v-2.6zm3.8-1.9h1.9v6.2a3.2 3.2 0 011-1 2.8 2.8 0 011.5-.4c1.5 0 2.8 1.2 2.8 4.1v7.7h-1.9V84c0-1.4-.3-2.8-1.6-2.8-.8 0-1.5.7-1.8 1.9a5 5 0 000 .9v7.5h-1.9zm11 11c0 3.5 1.5 4.3 2.8 4.3a3.8 3.8 0 002-.5l.2 1.4a5.6 5.6 0 01-2.5.6c-2.8 0-4.3-2.3-4.3-5.9 0-3.7 1.6-6.1 4-6.1s3.3 2.5 3.3 5.1v1zm3.7-1.4c0-2.3-.9-3.4-1.8-3.4-1.2 0-1.8 1.8-1.8 3.4zm7.2 5a3.7 3.7 0 001.9.7 1.6 1.6 0 001.7-1.7c0-.9-.3-1.5-1.5-2.3-1.5-1-2.3-2-2.3-3.3a3.1 3.1 0 013.2-3.2 4 4 0 012 .6l-.5 1.4a2.7 2.7 0 00-1.5-.5 1.4 1.4 0 00-1.5 1.4c0 .8.3 1.3 1.4 2 1.4 1 2.4 2 2.4 3.6a3.2 3.2 0 01-3.5 3.4 4 4 0 01-2.3-.6zm14.4-3.8c0 4.5-2.1 6-3.9 6-2 0-3.8-1.9-3.8-6 0-4.3 2-6 4-6s3.7 2 3.7 6zm-5.8 0c0 2 .3 4.5 2 4.5s1.9-2.7 1.9-4.5-.3-4.5-2-4.5-1.9 2.7-1.9 4.5zm7.8-10.8h1.9v16.6h-1.9zm11.6 13.4v3.2h-1.5l-.1-1.2a3 3 0 01-2.6 1.4c-2 0-2.8-1.6-2.8-4.5V80h1.8V87c0 1.8.3 3.2 1.6 3.2a1.8 1.8 0 001.7-1.6 4.9 4.9 0 000-1V80h1.9zm4.8-11.5v3h2.3v1.5h-2.3v6.9c0 1.5.6 2 1.3 2a3.4 3.4 0 00.7-.2v1.5a4 4 0 01-1.3.1 2.4 2.4 0 01-1.8-.6c-.5-.6-.7-1.4-.7-3v-6.7h-1.4V80h1.4v-2.6zm5.9 0a1 1 0 01-1.1 1.3 1 1 0 01-1-1.2 1.1 1.1 0 011-1.2 1 1 0 011 1.2zm-2 14.7V80h1.8v11.6zm11.6-5.8c0 4.5-2.1 6-4 6-2 0-3.7-1.9-3.7-6 0-4.3 2-6 3.9-6s3.8 2 3.8 6zm-5.8 0c0 2 .3 4.5 2 4.5s1.8-2.7 1.8-4.5-.3-4.5-1.9-4.5-2 2.7-2 4.5zm7.8-2.8v-3h1.5l.1 1.4a3 3 0 012.7-1.6c1.6 0 2.8 1.2 2.8 4v7.8h-1.8V84c0-1.4-.3-2.8-1.7-2.8-.7 0-1.5.7-1.7 2a6.4 6.4 0 000 1v7.2h-2zm9.6 7.4A1.3 1.3 0 01450 89a1.4 1.4 0 010 2.8 1.3 1.3 0 01-1.2-1.4zm80.7-58.9a3.8 3.8 0 010 7.6 3.8 3.8 0 110-7.6zm0 .8a3 3 0 102.9 3 2.9 2.9 0 00-3-3zm-.6 5h-.8v-3.8a8 8 0 011.4-.1 2 2 0 011.2.3 1 1 0 01.4.8 1 1 0 01-.8.8c.4.2.5.5.7 1a4.2 4.2 0 00.2.9h-.8a2.4 2.4 0 01-.3-1c0-.3-.3-.5-.8-.5h-.4zm0-2.2h.4c.5 0 .9-.1.9-.5s-.2-.6-.8-.6h-.5z" fill="#003767"/>
</svg>