<svg xmlns="http://www.w3.org/2000/svg" class="my-0 mx-auto" viewBox="0 0 242 105">

    <g>
        <title>background</title>
        <rect fill="none" id="canvas_background" height="107" width="244" y="-1" x="-1"/>
    </g>
    <g>
        <title>Layer 1</title>
        <path id="svg_1" fill="#333" d="m76.5,18l19.9,0l0,3.7l-7.8,0l0,20.8l-4.3,0l0,-20.8l-7.8,0l0,-3.7zm19,6.8l3.7,0l0,3.4a4,4 0 0 1 0.7,-1.4a6.2,6.2 0 0 1 1.2,-1.3a6.4,6.4 0 0 1 1.6,-0.9a4.8,4.8 0 0 1 1.7,-0.3l1.6,0l0,3.8l-0.9,-0.1a7.2,7.2 0 0 0 -0.8,0a4.6,4.6 0 0 0 -1.9,0.3a4.3,4.3 0 0 0 -1.5,1.2a5.9,5.9 0 0 0 -1,1.9a8,8 0 0 0 -0.4,2.6l0,8.4l-4,0l0,-17.6zm28.5,17.7l-4,0l0,-2.5a5.3,5.3 0 0 1 -2.1,2.1a5.9,5.9 0 0 1 -3,0.8c-2.3,0 -4,-0.6 -5,-1.7a7.7,7.7 0 0 1 -1.6,-5.3l0,-11.1l4,0l0,10.9a4.8,4.8 0 0 0 0.8,3.3a3.3,3.3 0 0 0 2.6,1a4.8,4.8 0 0 0 2,-0.4a3.5,3.5 0 0 0 1.3,-1a4,4 0 0 0 0.8,-1.5a7.5,7.5 0 0 0 0.2,-2l0,-10.3l4,0l0,17.7zm6.6,-5.7a3,3 0 0 0 1.3,2.4a5.2,5.2 0 0 0 2.8,0.7a11.6,11.6 0 0 0 1.2,-0.1a5.2,5.2 0 0 0 1.3,-0.3a2.5,2.5 0 0 0 1,-0.7a1.7,1.7 0 0 0 0.4,-1.2a1.7,1.7 0 0 0 -0.6,-1.3a3.9,3.9 0 0 0 -1.3,-0.8a13.2,13.2 0 0 0 -1.8,-0.5l-2.1,-0.4a19.9,19.9 0 0 1 -2.1,-0.6a6.4,6.4 0 0 1 -1.8,-1a4.1,4.1 0 0 1 -1.3,-1.4a4.7,4.7 0 0 1 -0.5,-2.2a4,4 0 0 1 0.7,-2.4a5.4,5.4 0 0 1 1.8,-1.6a8.3,8.3 0 0 1 2.4,-0.8a14.6,14.6 0 0 1 2.5,-0.3a11.8,11.8 0 0 1 2.6,0.3a6.8,6.8 0 0 1 2.3,1a5.6,5.6 0 0 1 1.7,1.7a5.9,5.9 0 0 1 0.8,2.5l-4,0a2.4,2.4 0 0 0 -1.3,-1.9a5.2,5.2 0 0 0 -2.3,-0.5a7.3,7.3 0 0 0 -1,0a5.4,5.4 0 0 0 -1.1,0.3a2.3,2.3 0 0 0 -0.8,0.6a1.3,1.3 0 0 0 -0.4,1a1.5,1.5 0 0 0 0.5,1.2a4.2,4.2 0 0 0 1.3,0.7a13.2,13.2 0 0 0 1.8,0.5l2.2,0.4a20.7,20.7 0 0 1 2,0.6a6.3,6.3 0 0 1 1.9,1a4.6,4.6 0 0 1 1.3,1.4a4.5,4.5 0 0 1 0.5,2.2a4.8,4.8 0 0 1 -0.7,2.7a5.8,5.8 0 0 1 -2,1.8a8.8,8.8 0 0 1 -2.5,1a12.8,12.8 0 0 1 -2.8,0.3a11.8,11.8 0 0 1 -3,-0.4a7.6,7.6 0 0 1 -2.5,-1.1a5.7,5.7 0 0 1 -1.7,-2a6.3,6.3 0 0 1 -0.6,-2.7l4,0l-0.1,-0.1zm13,-12l3,0l0,-5.3l3.8,0l0,5.3l3.6,0l0,3l-3.6,0l0,9.4a9.7,9.7 0 0 0 0,1a2,2 0 0 0 0.3,0.8a1.1,1.1 0 0 0 0.6,0.5a2.8,2.8 0 0 0 1,0.2l0.8,0a4.6,4.6 0 0 0 0.9,-0.2l0,3l-1.3,0.2a10.1,10.1 0 0 1 -1.3,0a8.7,8.7 0 0 1 -2.4,-0.2a3.2,3.2 0 0 1 -1.5,-0.9a3,3 0 0 1 -0.7,-1.4a10.7,10.7 0 0 1 -0.3,-2l0,-10.4l-3,0l0,-3l0.1,0zm13,0l3.8,0l0,2.4a4.8,4.8 0 0 1 2.3,-2.2a7.6,7.6 0 0 1 3.3,-0.7a8.3,8.3 0 0 1 3.6,0.8a7.1,7.1 0 0 1 2.6,2a8.8,8.8 0 0 1 1.5,3a12.6,12.6 0 0 1 0.6,3.6a12.7,12.7 0 0 1 -0.5,3.5a9.3,9.3 0 0 1 -1.4,3a6.9,6.9 0 0 1 -2.4,2a7,7 0 0 1 -3.4,0.8a9.6,9.6 0 0 1 -1.7,-0.1a7.5,7.5 0 0 1 -1.7,-0.5a6,6 0 0 1 -1.4,-1a5.5,5.5 0 0 1 -1.1,-1.2l-0.1,0l0,8.9l-4,0l0,-24.3zm13.7,8.9a8.8,8.8 0 0 0 -0.3,-2.3a6.3,6.3 0 0 0 -1,-2a4.8,4.8 0 0 0 -1.4,-1.4a4.8,4.8 0 0 0 -5.9,1.1a7.6,7.6 0 0 0 -1.2,4.6a8.8,8.8 0 0 0 0.3,2.5a5.6,5.6 0 0 0 1,2a4.7,4.7 0 0 0 1.6,1.3a4.9,4.9 0 0 0 4.3,0a4.8,4.8 0 0 0 1.5,-1.5a5.9,5.9 0 0 0 0.9,-2a11.1,11.1 0 0 0 0.2,-2.3zm7,-15.7l3.8,0l0,3.7l-4,0l0.2,-3.7zm0,6.8l3.8,0l0,17.7l-4,0l0,-17.7l0.2,0zm7.3,-6.8l4,0l0,24.5l-4,0l0,-24.5zm15.9,25a9.7,9.7 0 0 1 -3.8,-0.7a8,8 0 0 1 -4.6,-4.9a11.4,11.4 0 0 1 -0.6,-3.8a11.3,11.3 0 0 1 0.6,-3.7a8.4,8.4 0 0 1 1.8,-3a8,8 0 0 1 2.8,-1.9a10.5,10.5 0 0 1 7.6,0a8,8 0 0 1 4.5,4.9a11.3,11.3 0 0 1 0.6,3.7a11.4,11.4 0 0 1 -0.6,3.8a8.4,8.4 0 0 1 -1.7,3a8,8 0 0 1 -2.8,2a9.7,9.7 0 0 1 -3.8,0.6zm0,-3a4.5,4.5 0 0 0 2.3,-0.6a4.8,4.8 0 0 0 1.5,-1.5a6.4,6.4 0 0 0 1,-2a9,9 0 0 0 0,-4.5a6,6 0 0 0 -1,-2a4.8,4.8 0 0 0 -1.5,-1.4a5,5 0 0 0 -4.6,0a5,5 0 0 0 -1.5,1.4a6.3,6.3 0 0 0 -1,2a9,9 0 0 0 0,4.6a6,6 0 0 0 1,2a4.8,4.8 0 0 0 1.5,1.4a4.4,4.4 0 0 0 2.3,0.6zm10,-15.2l3,0l0,-5.3l4,0l0,5.3l3.5,0l0,3l-3.5,0l0,9.4a9.7,9.7 0 0 0 0,1a2,2 0 0 0 0.3,0.8a1.1,1.1 0 0 0 0.6,0.5a2.8,2.8 0 0 0 1,0.2l0.8,0a4.6,4.6 0 0 0 0.8,-0.2l0,3l-1.2,0.2a10.1,10.1 0 0 1 -1.3,0a8.7,8.7 0 0 1 -2.5,-0.2a3.2,3.2 0 0 1 -1.5,-0.9a3,3 0 0 1 -0.7,-1.4a10.7,10.7 0 0 1 -0.2,-2l0,-10.4l-3,0l0,-3l-0.1,0z"/>
        <path id="svg_2" fill="#189b6e" d="m72,18l-18,0l-5.5,-17l-5.5,17l-18,0l14.6,10.5l-5.6,17.1l14.5,-10.5l14.5,10.5l-5.5,-17l14.5,-10.6z"/>
        <path id="svg_3" fill="#115128" d="m58.6,32.2l-1.2,-3.8l-9,6.5l10.2,-2.7z"/>
        <path id="svg_4" d="m25,62.5l36.8,0l0,36.8l-36.8,0l0,-36.8zm39.8,0l36.8,0l0,36.8l-36.8,0l0,-36.8zm39.8,0l36.8,0l0,36.8l-36.8,0l0,-36.8zm39.8,0l36.8,0l0,36.8l-36.8,0l0,-36.8zm39.9,0l36.8,0l0,36.8l-36.8,0l0,-36.8z" fill="#189b6e"/>
        <path id="svg_5" fill="#fff" d="m43.4,87.3l5.6,-1.4l2.3,7.2l-7.9,-5.8zm12.8,-9.3l-9.8,0l-3,-9.3l-3,9.3l-9.9,0l8,5.7l-3,9.3l8,-5.7l5,-3.6l7.7,-5.7zm27,9.3l5.6,-1.4l2.2,7.1l-7.8,-5.7zm12.8,-9.3l-9.8,0l-3,-9.3l-3,9.3l-9.9,0l8,5.7l-3,9.3l8,-5.7l5,-3.6l7.7,-5.7zm27,9.3l5.6,-1.4l2.3,7.2l-7.9,-5.8zm12.9,-9.3l-9.9,0l-3,-9.3l-3,9.3l-9.8,0l8,5.7l-3,9.3l8,-5.7l4.9,-3.6l7.9,-5.7l-0.1,0zm26.9,9.3l5.6,-1.4l2.3,7.2l-7.9,-5.8zm12.9,-9.3l-9.9,0l-3,-9.3l-3,9.3l-9.8,0l8,5.7l-3,9.3l8,-5.7l4.9,-3.6l7.8,-5.7zm26.9,9.3l5.6,-1.4l2.4,7.2l-8,-5.8zm12.9,-9.3l-9.8,0l-3,-9.3l-3,9.3l-9.9,0l8,5.7l-3,9.3l8,-5.7l4.9,-3.6l8,-5.7l-0.2,0z"/>
    </g>
</svg>
